<?xml version="1.0" encoding="utf-8"?>
<!-- Generator: Adobe Illustrator 26.3.1, SVG Export Plug-In . SVG Version: 6.00 Build 0)  -->
<svg version="1.1" id="Layer_1" xmlns="http://www.w3.org/2000/svg" xmlns:xlink="http://www.w3.org/1999/xlink" x="0px" y="0px"
	 viewBox="0 0 259 62" style="enable-background:new 0 0 259 62;" xml:space="preserve">
<style type="text/css">
	.st0{fill:#ED3438;}
	.st1{fill:#616163;}
	.st2{fill-rule:evenodd;clip-rule:evenodd;fill:#ED3438;}
</style>
<g id="Layer_x0020_1">
	<g id="_92918136">
		<path id="_257229176" class="st0" d="M60.9,27c0.1,0,0.2,0,0.4,0.1c0.1,0,0.3,0,0.5,0c0.2,0,0.3,0,0.5,0c0.1,0,0.3,0,0.4,0
			c1,0,1.8-0.1,2.4-0.2c0.7-0.1,1.2-0.4,1.7-0.7c0.3-0.2,0.5-0.4,0.7-0.7c0.2-0.3,0.4-0.7,0.6-1.2c0.2-0.5,0.3-1.1,0.4-1.8
			c0.1-0.7,0.1-1.6,0.1-2.7c0-1.3-0.2-2.4-0.5-3.2c-0.3-0.8-0.7-1.5-1.3-2c-0.5-0.5-1.1-0.8-1.9-1c-0.7-0.2-1.5-0.3-2.3-0.3
			c-0.1,0-0.3,0-0.4,0c-0.2,0-0.3,0-0.5,0c-0.2,0-0.3,0-0.5,0c-0.1,0-0.3,0-0.3,0L60.9,27L60.9,27z M57.7,12c0.3,0,0.7-0.1,1.2-0.1
			c0.5,0,0.9-0.1,1.5-0.1c0.5,0,1-0.1,1.5-0.1c0.5,0,1,0,1.5,0c1.3,0,2.5,0.1,3.6,0.4c1.1,0.3,2,0.8,2.7,1.4
			c0.8,0.6,1.4,1.5,1.8,2.5c0.4,1,0.6,2.2,0.6,3.6c0,1.4-0.2,2.6-0.5,3.8c-0.3,1.1-0.9,2.1-1.6,2.9s-1.6,1.4-2.8,1.9
			c-1.1,0.4-2.5,0.7-4.1,0.7c-0.4,0-0.9,0-1.4,0c-0.5,0-1,0-1.5-0.1c-0.5,0-0.9-0.1-1.4-0.1c-0.4,0-0.8-0.1-1.2-0.1
			C57.7,28.5,57.7,12,57.7,12z"/>
		<path id="_2572291761" class="st0" d="M81.2,21.7h-1.1v6.9h-3.2V11.9c0.7-0.1,1.4-0.1,2.2-0.1c0.8,0,1.6-0.1,2.4-0.1
			c1.9,0,3.4,0.4,4.4,1.1c1,0.7,1.5,1.9,1.5,3.5c0,0.7-0.1,1.3-0.3,1.8c-0.2,0.5-0.4,1-0.7,1.4c-0.3,0.4-0.6,0.7-1,1
			c-0.4,0.3-0.7,0.5-1.2,0.7c0.5,0.9,0.9,1.7,1.4,2.4c0.4,0.8,0.9,1.4,1.3,2c0.4,0.6,0.9,1,1.3,1.4c0.4,0.3,0.9,0.5,1.4,0.5h0.1v1.1
			c-0.3,0.1-0.6,0.2-0.9,0.2c-0.3,0.1-0.7,0.1-1.1,0.1c-0.6,0-1.1-0.1-1.6-0.2c-0.4-0.1-0.9-0.3-1.3-0.7c-0.4-0.4-0.9-0.9-1.3-1.6
			c-0.5-0.7-1-1.7-1.6-2.9C82.1,23.5,81.2,21.7,81.2,21.7z M80.7,20.1c0.4,0,0.9-0.1,1.3-0.2c0.4-0.1,0.8-0.3,1-0.4
			c0.1-0.1,0.2-0.2,0.4-0.3c0.1-0.1,0.2-0.3,0.3-0.5c0.1-0.2,0.2-0.5,0.2-0.8C84,17.4,84,17,84,16.5c0-0.6-0.1-1.1-0.2-1.4
			c-0.1-0.4-0.3-0.7-0.6-0.9c-0.3-0.2-0.6-0.4-1-0.5c-0.4-0.1-0.8-0.2-1.3-0.2c-0.1,0-0.3,0-0.4,0c-0.2,0-0.3,0-0.4,0.1v6.6H80.7z"
			/>
		<polygon id="_25722917612" class="st0" points="102.6,28.7 93,28.7 93,11.8 102.3,11.8 102.1,13.6 96.2,13.6 96.2,19.1 
			101.8,19.2 101.6,20.7 96.2,20.9 96.2,26.9 102.8,27 		"/>
		<path id="_257229176123" class="st0" d="M117,28.7l-1.9-5.7l-6,0.1l-1.9,5.6h-2.1l6.3-16.7l3.2-0.6l5.9,17.2
			C120.5,28.7,117,28.7,117,28.7z M114.6,21.4l-2.4-7.3l-2.5,7.3H114.6z"/>
		<polygon id="_2572291761234" class="st0" points="140.4,28.7 139.1,15.8 133.4,28.7 132.4,28.7 126.4,15.8 125.3,28.7 123.4,28.7 
			125,11.7 128.1,11.7 133.7,23.6 139,11.7 142,11.7 143.7,28.7 		"/>
		<polygon id="_25722917612345" class="st1" points="169.2,28.7 159.6,28.7 159.6,11.8 168.9,11.8 168.7,13.6 162.9,13.6 
			162.9,19.1 168.4,19.2 168.3,20.7 162.9,20.9 162.9,26.9 169.4,27 		"/>
		<polygon id="_257229176123456" class="st1" points="176.8,28.7 173.6,28.7 173.6,11.8 183,11.8 182.9,13.5 176.8,13.6 176.8,19.6 
			182.7,19.7 182.5,21.2 176.8,21.3 		"/>
		<polygon id="_2572291761234567" class="st1" points="190.3,28.7 187,28.7 187,11.8 196.5,11.8 196.3,13.5 190.3,13.6 190.3,19.6 
			196.1,19.7 196,21.2 190.3,21.3 		"/>
		<polygon id="_25722917612345678" class="st1" points="210.1,28.7 200.5,28.7 200.5,11.8 209.8,11.8 209.6,13.6 203.8,13.6 
			203.8,19.1 209.3,19.2 209.1,20.7 203.8,20.9 203.8,26.9 210.3,27 		"/>
		<path id="_257229176123456789" class="st1" d="M220.9,28.9c-1.3,0-2.3-0.2-3.2-0.6c-0.9-0.4-1.6-1-2.1-1.8
			c-0.5-0.8-0.9-1.7-1.2-2.8c-0.2-1.1-0.4-2.3-0.4-3.6c0-1.1,0.1-2,0.4-2.8c0.2-0.8,0.6-1.6,1-2.2c0.4-0.6,0.9-1.2,1.5-1.6
			c0.6-0.4,1.1-0.8,1.8-1.1c0.6-0.3,1.2-0.5,1.9-0.6c0.6-0.1,1.3-0.2,1.9-0.2c0.4,0,0.8,0,1.2,0c0.4,0,0.8,0.1,1.2,0.1
			c0.4,0,0.8,0.1,1.1,0.1c0.3,0.1,0.6,0.1,0.8,0.2l-0.6,2.4c-0.2-0.1-0.5-0.1-0.9-0.2c-0.4-0.1-0.8-0.2-1.3-0.2
			c-0.5-0.1-0.9-0.1-1.4-0.2c-0.4,0-0.8-0.1-1.1-0.1c-0.3,0-0.6,0-0.9,0c-0.3,0-0.5,0.1-0.7,0.1c-0.2,0.1-0.4,0.1-0.6,0.2
			c-0.2,0.1-0.4,0.2-0.6,0.4c-0.5,0.4-0.8,1-1,2c-0.2,1-0.3,2.2-0.3,3.7c0,2.3,0.3,4,1,5.1c0.7,1.2,1.7,1.7,3.2,1.7
			c0.8,0,1.7-0.1,2.6-0.2c0.9-0.1,1.7-0.3,2.5-0.6v1.4c-0.4,0.2-0.9,0.4-1.3,0.5c-0.5,0.2-1,0.3-1.5,0.4c-0.5,0.1-1,0.2-1.5,0.2
			C221.8,28.9,221.3,28.9,220.9,28.9L220.9,28.9z"/>
		<polygon id="_25722917612345678910" class="st1" points="234.3,28.7 234.3,13.6 229.4,13.6 229.6,11.8 242.5,11.8 242.4,13.5 
			237.6,13.6 237.6,28.7 		"/>
		<path id="_2572291761234567891011" class="st1" d="M255.8,23.7c0,0.6-0.1,1.2-0.4,1.8c-0.3,0.6-0.7,1.2-1.3,1.7
			c-0.5,0.5-1.2,0.9-2,1.2c-0.8,0.3-1.6,0.5-2.6,0.5c-0.5,0-1,0-1.4-0.1c-0.4-0.1-0.8-0.1-1.2-0.2c-0.4-0.1-0.7-0.2-1.1-0.4
			c-0.4-0.1-0.7-0.3-1.1-0.5l0.8-2.5c0.2,0.2,0.5,0.3,0.9,0.5c0.4,0.2,0.8,0.4,1.3,0.5c0.4,0.2,0.9,0.3,1.4,0.4
			c0.5,0.1,0.9,0.2,1.3,0.2c0.4,0,0.8,0,1-0.1c0.3-0.1,0.5-0.1,0.7-0.2c0.2-0.1,0.4-0.3,0.6-0.7c0.1-0.4,0.2-0.9,0.2-1.5
			c0-0.6-0.2-1-0.6-1.4c-0.4-0.3-0.8-0.6-1.4-0.9c-0.6-0.2-1.2-0.5-1.8-0.7c-0.7-0.2-1.3-0.6-1.8-1c-0.6-0.4-1-0.9-1.4-1.5
			c-0.4-0.6-0.6-1.4-0.6-2.4c0-0.5,0.1-1,0.4-1.5c0.3-0.5,0.6-1,1.1-1.5c0.5-0.5,1.1-0.8,1.8-1.1c0.7-0.3,1.5-0.4,2.4-0.4
			c0.7,0,1.4,0,2.1,0.1c0.7,0.1,1.3,0.2,2,0.3l-0.5,2.5c-0.3-0.1-0.6-0.2-1-0.3c-0.4-0.1-0.7-0.2-1.1-0.3s-0.8-0.1-1.1-0.2
			c-0.4,0-0.7-0.1-1-0.1c-0.3,0-0.6,0-0.9,0c-0.3,0-0.5,0.1-0.7,0.2c-0.2,0.1-0.4,0.3-0.4,0.6c-0.1,0.3-0.1,0.7-0.1,1.1
			c0,0.4,0.1,0.8,0.3,1.1c0.2,0.3,0.5,0.5,0.9,0.7c0.4,0.2,0.8,0.4,1.2,0.6c0.5,0.2,0.9,0.4,1.4,0.6c0.5,0.2,0.9,0.4,1.4,0.7
			c0.5,0.3,0.9,0.6,1.2,1c0.4,0.4,0.6,0.8,0.9,1.4C255.7,22.3,255.8,23,255.8,23.7L255.8,23.7z"/>
		<g>
			<path id="_257229440" class="st2" d="M43.2,16.7c0.1,0.8-0.3,1.8-0.5,2.5c-2.6,6.1-7.1,11.5-12.5,15.4c-4.4,3.2-9.3,6-14.5,7.3
				c-3.1,0.8-6.2,1.3-9.3,1.9c0,0.1,0,0.1,0,0.2c5.7-0.4,12.2-1.4,17.9-3.8C33.1,36.2,41,28.7,45,20c0.7-1.5,1.1-3.2,0.4-4.7
				c-0.4-0.6-1.2-0.8-1.8-0.4C43,15.3,42.9,16.1,43.2,16.7z"/>
			<path id="_257229128" class="st2" d="M47.5,27.9c0.1,0.6-0.3,1.5-0.5,2c-2.3,5-6.1,9.5-10.7,12.7c-7.5,5.4-11.5,6.1-19.9,8
				c0,0,0,0.1,0,0.1c5-0.6,10.2-1.4,14.9-3.5c7.4-3.3,14.1-9.5,17.5-16.7c0.6-1.2,1-2.6,0.4-3.8c-0.3-0.5-1-0.6-1.5-0.3
				C47.4,26.8,47.2,27.4,47.5,27.9z"/>
			<path id="_257229248" class="st2" d="M47.7,38.7c0.1,0.4-0.2,1-0.3,1.4c-1.6,3.4-4.2,6.5-7.3,8.7c-5.2,3.7-7.9,4.2-13.7,5.5
				c0,0,0,0.1,0,0.1c3.4-0.3,7-0.9,10.3-2.4c5.1-2.2,9.7-6.5,12.1-11.4c0.4-0.8,0.7-1.8,0.3-2.6c-0.2-0.3-0.7-0.4-1-0.2
				C47.6,37.9,47.5,38.4,47.7,38.7z"/>
			<path id="_254769376" class="st2" d="M36.5,10.6c-3.6,4.9-7.8,9.2-12.7,12.9c-3.5,2.6-7.3,4.9-11.3,6.6C10.2,31,8,31.8,5.7,32.6
				c0,0,0,0.1,0,0.1c4.5-1.3,9.1-2.3,13.6-4.4c7.8-3.7,14.7-10,19.6-16.9c0.2-0.7-0.1-1.4-0.8-1.7C37.5,9.6,36.7,9.9,36.5,10.6z"/>
			<path id="_92185624" class="st2" d="M26.9,8c-2.5,3.4-5.5,6.5-8.9,9.1c-2.5,1.9-5.1,3.4-8,4.7c-1.6,0.6-3.2,1.2-4.8,1.8
				c0,0,0,0.1,0,0.1c3.2-0.8,6.4-1.8,9.5-3.1c5.6-2.3,10.3-7,13.8-11.9c0.2-0.5-0.1-1-0.6-1.2C27.6,7.3,27.1,7.5,26.9,8z"/>
			<path id="_92919000" class="st2" d="M11.4,15.8c0.8-0.2,1.9,0.1,2.5,0.4c6.2,2.2,11.9,6.4,16.1,11.4c3.5,4.2,6.4,8.9,8.3,14
				c0.8,3,1.7,6.1,2.5,9.1c0.1,0,0.1,0,0.2,0c-1.3-6-2-12.4-5-17.6c-4.9-8.3-12.4-15.9-21.3-19.3c-1.5-0.6-3.2-0.9-4.7-0.1
				c-0.6,0.4-0.7,1.2-0.3,1.8C10,16.1,10.8,16.2,11.4,15.8z"/>
			<path id="_92034016" class="st2" d="M22.3,10.8c0.6-0.1,1.5,0.2,2,0.4c5.1,2,9.8,5.5,13.4,9.8c2.9,3.5,5.4,7.5,7,11.7l2.2,7.6
				l0.1,0c-1.2-5-2-10.1-4.4-14.7C39,18.5,32.3,12.2,24.9,9.2c-1.3-0.5-2.7-0.8-3.9-0.2c-0.5,0.3-0.5,1-0.2,1.5
				C21.2,11,21.9,11.1,22.3,10.8z"/>
			<path id="_92184904" class="st2" d="M33.1,9.9c0.4-0.1,1.1,0.1,1.4,0.2c3.6,1.4,6.9,3.9,9.5,6.9c2.1,2.5,3.8,5.3,5,8.3l1.6,5.4
				l0.1,0c-0.9-3.5-1.4-7.1-3.1-10.4c-2.6-5-7.3-9.5-12.5-11.6c-0.9-0.4-1.9-0.6-2.7-0.1c-0.3,0.2-0.4,0.7-0.1,1
				C32.3,10.1,32.8,10.1,33.1,9.9z"/>
			<path id="_92186632" class="st2" d="M5.8,22.9c5.1,3.3,9.7,7.2,13.7,11.8c2.9,3.3,5.3,7,7.4,10.9c1,2.2,2,4.4,2.9,6.6
				c0,0,0.1,0,0.1,0c-1.7-4.4-3.1-9-5.2-13.3c-4-8-10.9-14-18.2-18.5c-0.7-0.2-1.4,0.2-1.6,0.9C4.7,22,5.1,22.7,5.8,22.9z"/>
			<path id="_92919240" class="st2" d="M3.8,32.6c3.6,2.3,6.8,5.1,9.6,8.3c2,2.3,3.8,4.9,5.2,7.6c0.7,1.5,1.4,3.1,2.1,4.6
				c0,0,0.1,0,0.1,0c-1.2-3.3-2.2-6.3-3.7-9.3c-2.8-5.4-7.7-9.8-12.8-13c-0.5-0.1-1,0.1-1.1,0.6C3,32,3.3,32.5,3.8,32.6z"/>
		</g>
		<polygon id="_92918352" class="st1" points="67.8,50.1 67,42.6 63.6,50.1 63,50.1 59.5,42.6 58.9,50.1 57.7,50.1 58.7,40.2 
			60.5,40.2 63.8,47.2 66.9,40.2 68.7,40.2 69.7,50.1 		"/>
		<path id="_929183521" class="st1" d="M74.5,43.5v4.4c0,0.4,0.1,0.7,0.2,0.9c0.1,0.2,0.3,0.3,0.6,0.3c0.1,0,0.2,0,0.4,0
			c0.1,0,0.3-0.1,0.4-0.1c0.1-0.1,0.3-0.1,0.4-0.2c0.1-0.1,0.2-0.1,0.3-0.2v-5h1.9v6.6H77l-0.2-0.8h0c-0.1,0.1-0.3,0.2-0.5,0.3
			c-0.2,0.1-0.4,0.2-0.6,0.3c-0.2,0.1-0.4,0.2-0.7,0.2c-0.2,0.1-0.5,0.1-0.7,0.1c-0.2,0-0.5,0-0.7-0.1c-0.2-0.1-0.4-0.2-0.6-0.4
			c-0.2-0.2-0.3-0.4-0.4-0.6c-0.1-0.2-0.1-0.5-0.1-0.9v-4.8C72.6,43.5,74.5,43.5,74.5,43.5z"/>
		<polygon id="_9291835212" class="st1" points="83.8,50.1 82,50.1 82,39.3 83.8,38.9 		"/>
		<path id="_92918352123" class="st1" d="M87.2,44.4l-0.7-0.2v-0.4l2-1.4H89l0,1.2h2l-0.1,0.7c-0.1,0-0.3,0.1-0.5,0.1
			c-0.2,0-0.4,0-0.6,0.1c-0.2,0-0.5,0-0.7,0.1v3.7c0,0.2,0,0.4,0.1,0.6c0.1,0.2,0.3,0.2,0.5,0.2c0.1,0,0.2,0,0.3,0
			c0.1,0,0.2,0,0.4,0c0.1,0,0.3,0,0.4,0c0.1,0,0.2,0,0.3,0v0.5c-0.2,0.1-0.3,0.2-0.5,0.3c-0.2,0.1-0.4,0.2-0.7,0.3
			c-0.2,0.1-0.5,0.1-0.7,0.2c-0.2,0.1-0.5,0.1-0.7,0.1c-0.2,0-0.3,0-0.5,0c-0.2,0-0.3-0.1-0.4-0.2c-0.1-0.1-0.2-0.2-0.3-0.4
			c-0.1-0.2-0.1-0.4-0.1-0.7L87.2,44.4L87.2,44.4z"/>
		<path id="_929183521234" class="st1" d="M95.4,50.1h-1.9v-6.6h1.9V50.1z M94.4,39.8l1.2,1.2l-1.2,1.2L93.2,41L94.4,39.8z"/>
		<path id="_9291835212345" class="st1" d="M102.6,50.1v-4.4c0-0.4-0.1-0.7-0.2-0.9c-0.1-0.2-0.3-0.3-0.6-0.3
			c-0.2,0-0.4,0.1-0.7,0.2c-0.3,0.1-0.5,0.2-0.7,0.4v5h-1.9v-6.6h1.7l0.2,0.8h0c0.1-0.1,0.3-0.2,0.5-0.3c0.2-0.1,0.4-0.2,0.6-0.3
			c0.2-0.1,0.4-0.2,0.6-0.2c0.2-0.1,0.4-0.1,0.6-0.1c0.4,0,0.7,0.1,0.9,0.2c0.3,0.2,0.5,0.4,0.6,0.8c0.1-0.1,0.3-0.2,0.5-0.3
			c0.2-0.1,0.4-0.2,0.6-0.3c0.2-0.1,0.4-0.2,0.7-0.3c0.2-0.1,0.5-0.1,0.7-0.1c0.2,0,0.5,0,0.7,0.1c0.2,0.1,0.4,0.2,0.6,0.4
			c0.2,0.2,0.3,0.4,0.4,0.6c0.1,0.2,0.1,0.5,0.1,0.9v4.8h-1.9v-4.4c0-0.4-0.1-0.7-0.2-0.9c-0.1-0.2-0.3-0.3-0.6-0.3
			c-0.2,0-0.4,0.1-0.7,0.2c-0.3,0.1-0.5,0.2-0.7,0.4v5L102.6,50.1L102.6,50.1z"/>
		<path id="_92918352123456" class="st1" d="M114.5,43.4c0.3,0,0.6,0,0.9,0.1c0.3,0.1,0.6,0.2,0.8,0.5c0.2,0.2,0.5,0.5,0.6,0.8
			c0.2,0.4,0.3,0.8,0.4,1.3v0.1c-0.1,0.1-0.1,0.2-0.2,0.2c-0.1,0.1-0.2,0.1-0.4,0.2c-0.2,0-0.4,0.1-0.6,0.1c-0.2,0-0.5,0.1-0.8,0.1
			l-2.1,0.2v0.3c0,0.5,0.1,0.9,0.4,1.3c0.3,0.3,0.7,0.5,1.2,0.5c0.2,0,0.5,0,0.7-0.1c0.2,0,0.5-0.1,0.7-0.2c0.2-0.1,0.4-0.1,0.6-0.2
			c0.2-0.1,0.3-0.1,0.4-0.2l0.2,0.5c-0.2,0.2-0.4,0.3-0.7,0.5c-0.2,0.2-0.5,0.3-0.8,0.4c-0.3,0.1-0.6,0.2-0.9,0.3
			c-0.3,0.1-0.6,0.1-1,0.1c-0.4,0-0.8-0.1-1.1-0.2c-0.3-0.1-0.6-0.3-0.9-0.6c-0.2-0.3-0.4-0.6-0.6-1c-0.1-0.4-0.2-0.9-0.2-1.5
			c0-0.7,0.1-1.2,0.2-1.7c0.2-0.5,0.4-0.8,0.7-1.1c0.3-0.3,0.6-0.5,1-0.6C113.6,43.4,114.1,43.4,114.5,43.4z M113.6,44.5
			c0,0-0.1,0.1-0.1,0.2c0,0.1-0.1,0.3-0.1,0.4c0,0.2-0.1,0.3-0.1,0.5c0,0.2,0,0.3,0,0.5l2.1-0.1c0-0.2-0.1-0.4-0.1-0.6
			c0-0.2-0.1-0.4-0.2-0.6c-0.1-0.2-0.2-0.3-0.3-0.4c-0.1-0.1-0.3-0.2-0.4-0.2c-0.1,0-0.2,0-0.3,0C113.8,44.4,113.7,44.4,113.6,44.5z
			"/>
		<path id="_929183521234567" class="st1" d="M124.1,43.5c0-0.1,0-0.2,0-0.3c0-0.1,0-0.2,0-0.2c0-0.1,0-0.2,0-0.2v-3.5l1.9-0.4v11.2
			h-1.3l-0.5-0.6h0c-0.3,0.2-0.5,0.4-0.8,0.5c-0.3,0.2-0.6,0.2-1,0.2c-0.3,0-0.7-0.1-1-0.2c-0.3-0.1-0.6-0.3-0.8-0.6
			c-0.2-0.3-0.4-0.6-0.6-1c-0.1-0.4-0.2-0.9-0.2-1.5c0-0.6,0.1-1.1,0.2-1.5c0.1-0.4,0.3-0.8,0.6-1.1c0.3-0.3,0.6-0.5,1-0.7
			c0.4-0.2,0.8-0.2,1.3-0.2c0.2,0,0.4,0,0.6,0C123.7,43.4,123.9,43.5,124.1,43.5L124.1,43.5z M121.6,46.9c0,0.8,0.1,1.3,0.4,1.7
			c0.2,0.4,0.6,0.5,1,0.5c0.2,0,0.4,0,0.6-0.1c0.2-0.1,0.4-0.1,0.5-0.2v-4.3c-0.3-0.1-0.6-0.1-0.9-0.1c-0.3,0-0.5,0-0.7,0.1
			c-0.2,0-0.4,0.1-0.5,0.2c-0.1,0.1-0.2,0.3-0.3,0.7C121.6,45.7,121.6,46.2,121.6,46.9L121.6,46.9z"/>
		<path id="_9291835212345678" class="st1" d="M131.1,50.1h-1.9v-6.6h1.9V50.1z M130.1,39.8l1.2,1.2l-1.2,1.2l-1.2-1.2L130.1,39.8z"
			/>
		<path id="_92918352123456789" class="st1" d="M139.8,49.1c0.2,0,0.4,0,0.7-0.1v0.5c-0.1,0.1-0.2,0.2-0.4,0.3
			c-0.1,0.1-0.3,0.2-0.4,0.2c-0.2,0.1-0.3,0.1-0.5,0.2c-0.2,0-0.3,0.1-0.5,0.1c-0.2,0-0.3,0-0.4-0.1c-0.1,0-0.2-0.1-0.3-0.2
			c-0.1-0.1-0.2-0.2-0.2-0.3c-0.1-0.1-0.1-0.2-0.2-0.3c-0.2,0.1-0.3,0.2-0.5,0.3c-0.2,0.1-0.3,0.2-0.5,0.3c-0.2,0.1-0.3,0.1-0.5,0.2
			c-0.2,0.1-0.4,0.1-0.6,0.1c-0.5,0-0.9-0.2-1.2-0.5c-0.3-0.3-0.4-0.8-0.4-1.5c0-0.3,0-0.6,0.1-0.9c0.1-0.3,0.2-0.5,0.4-0.6
			c0.2-0.2,0.5-0.3,0.8-0.4c0.3-0.1,0.7-0.1,1.1-0.2l1.1,0v-1c0-0.3-0.1-0.4-0.2-0.6c-0.1-0.1-0.4-0.2-0.7-0.2c-0.2,0-0.5,0-0.8,0.1
			c-0.3,0.1-0.6,0.2-1,0.3l-0.3-0.7c0.2-0.1,0.5-0.2,0.7-0.3c0.2-0.1,0.5-0.2,0.8-0.3c0.3-0.1,0.5-0.1,0.8-0.2
			c0.3,0,0.5-0.1,0.8-0.1c0.3,0,0.6,0,0.8,0.1c0.2,0.1,0.4,0.1,0.6,0.3c0.2,0.1,0.3,0.3,0.4,0.5c0.1,0.2,0.1,0.5,0.1,0.8v3
			C139.3,48.8,139.5,49.1,139.8,49.1L139.8,49.1z M137.5,48.8c0,0,0-0.1,0-0.2c0-0.1,0-0.3,0-0.5c0-0.2,0-0.4,0-0.6
			c0-0.2,0-0.5,0-0.7c-0.5,0-0.8,0-1.1,0.1c-0.2,0.1-0.4,0.1-0.4,0.2c0,0-0.1,0.1-0.1,0.2c0,0.1,0,0.2,0,0.3c0,0.1,0,0.2,0,0.3
			c0,0.1,0,0.2,0,0.3c0,0.3,0,0.5,0.1,0.7c0.1,0.2,0.2,0.3,0.4,0.3c0.2,0,0.4,0,0.6-0.1C137.1,49,137.3,48.9,137.5,48.8L137.5,48.8z
			"/>
		<path id="_9291835212345678910" class="st1" d="M149.3,47.4c0-0.7,0.2-1.2,0.5-1.6c0.3-0.4,0.8-0.8,1.5-1.2
			c-0.2-0.3-0.4-0.7-0.5-1c-0.1-0.4-0.2-0.7-0.2-1.1c0-0.3,0.1-0.6,0.2-0.9c0.1-0.3,0.3-0.5,0.5-0.7c0.2-0.2,0.5-0.4,0.8-0.5
			c0.3-0.1,0.6-0.2,1-0.2c0.4,0,0.8,0,1.1,0.1c0.3,0.1,0.5,0.2,0.7,0.4c0.2,0.2,0.3,0.4,0.4,0.6c0.1,0.2,0.1,0.4,0.1,0.7
			c0,0.3-0.1,0.6-0.2,0.8c-0.1,0.2-0.2,0.5-0.4,0.7c-0.2,0.2-0.4,0.4-0.7,0.6c-0.3,0.2-0.5,0.4-0.8,0.5c0.3,0.4,0.7,0.8,1.1,1.3
			c0.4,0.5,0.8,0.9,1.2,1.3c0.2-0.3,0.3-0.7,0.4-1.1c0.1-0.4,0.1-0.8,0.1-1.1c0-0.1,0-0.2,0-0.4c0-0.1,0-0.2-0.1-0.3l1.5-0.2
			c0.1,0.1,0.1,0.2,0.1,0.4c0,0.1,0,0.3,0,0.4c0,0.5-0.1,1.1-0.3,1.6c-0.2,0.5-0.5,1-1,1.5c0.5,0.4,0.9,0.8,1.3,1
			c0.4,0.3,0.8,0.4,1.2,0.4h0.2V50c-0.2,0.1-0.5,0.1-0.7,0.2c-0.3,0.1-0.6,0.1-0.9,0.1c-0.3,0-0.7-0.1-1.1-0.3
			c-0.4-0.2-0.8-0.5-1.2-0.8c-0.5,0.4-1,0.6-1.5,0.8c-0.5,0.2-1,0.3-1.5,0.3c-0.5,0-0.9-0.1-1.2-0.2c-0.4-0.2-0.6-0.4-0.9-0.6
			c-0.2-0.3-0.4-0.5-0.5-0.9C149.4,48.2,149.3,47.8,149.3,47.4L149.3,47.4z M152.8,49c0.6,0,1.1-0.2,1.5-0.5
			c-0.5-0.5-0.9-0.9-1.3-1.4c-0.4-0.5-0.8-1-1.1-1.5c-0.3,0.3-0.4,0.5-0.5,0.8c-0.1,0.3-0.1,0.6-0.1,0.9c0,0.3,0,0.5,0.1,0.7
			c0.1,0.2,0.2,0.4,0.3,0.5c0.1,0.1,0.3,0.3,0.5,0.3C152.4,48.9,152.6,49,152.8,49L152.8,49z M152.2,42.3c0,0.3,0,0.5,0.1,0.8
			c0.1,0.3,0.2,0.5,0.4,0.8c0.2-0.1,0.4-0.3,0.6-0.4c0.2-0.1,0.3-0.2,0.4-0.4c0.1-0.1,0.2-0.3,0.2-0.4c0-0.1,0.1-0.3,0.1-0.5
			c0-0.4-0.1-0.6-0.2-0.8c-0.2-0.2-0.3-0.3-0.6-0.3c-0.1,0-0.2,0-0.3,0.1c-0.1,0-0.2,0.1-0.3,0.2c-0.1,0.1-0.2,0.2-0.2,0.4
			C152.3,41.9,152.2,42.1,152.2,42.3z"/>
		<polygon id="_929183521234567891011" class="st1" points="170.1,50.1 168.2,50.1 168.2,40.2 170.1,40.2 		"/>
		<polygon id="_92918352123456789101112" class="st1" points="175.4,50.1 175.4,41.3 172.5,41.2 172.6,40.2 180.2,40.2 180.1,41.2 
			177.3,41.3 177.3,50.1 		"/>
		<path id="_9291835212345678910111213" class="st1" d="M195.6,47.2c0,0.4-0.1,0.7-0.3,1.1c-0.2,0.4-0.4,0.7-0.7,1
			c-0.3,0.3-0.7,0.5-1.2,0.7c-0.5,0.2-1,0.3-1.5,0.3c-0.3,0-0.6,0-0.8-0.1c-0.3,0-0.5-0.1-0.7-0.1c-0.2-0.1-0.4-0.1-0.6-0.2
			c-0.2-0.1-0.4-0.2-0.6-0.3l0.5-1.5c0.1,0.1,0.3,0.2,0.5,0.3c0.2,0.1,0.5,0.2,0.7,0.3c0.3,0.1,0.5,0.2,0.8,0.2
			c0.3,0.1,0.5,0.1,0.7,0.1c0.2,0,0.5,0,0.6,0c0.2,0,0.3-0.1,0.4-0.1c0.1-0.1,0.3-0.2,0.3-0.4c0.1-0.2,0.1-0.5,0.1-0.9
			c0-0.3-0.1-0.6-0.3-0.8c-0.2-0.2-0.5-0.4-0.8-0.5c-0.3-0.1-0.7-0.3-1.1-0.4c-0.4-0.1-0.7-0.3-1.1-0.6c-0.3-0.2-0.6-0.5-0.8-0.9
			c-0.2-0.4-0.3-0.8-0.3-1.4c0-0.3,0.1-0.6,0.2-0.9c0.2-0.3,0.4-0.6,0.7-0.9c0.3-0.3,0.6-0.5,1.1-0.7c0.4-0.2,0.9-0.3,1.4-0.3
			c0.4,0,0.8,0,1.2,0.1c0.4,0,0.8,0.1,1.2,0.2l-0.3,1.5c-0.2-0.1-0.4-0.1-0.6-0.2c-0.2-0.1-0.4-0.1-0.7-0.1c-0.2,0-0.4-0.1-0.7-0.1
			c-0.2,0-0.4,0-0.6,0c-0.2,0-0.4,0-0.5,0c-0.2,0-0.3,0.1-0.4,0.1c-0.1,0.1-0.2,0.2-0.3,0.4c-0.1,0.2-0.1,0.4-0.1,0.6
			c0,0.3,0.1,0.5,0.2,0.6c0.1,0.2,0.3,0.3,0.5,0.4c0.2,0.1,0.5,0.2,0.7,0.3c0.3,0.1,0.5,0.2,0.8,0.3c0.3,0.1,0.6,0.3,0.8,0.4
			c0.3,0.2,0.5,0.3,0.7,0.6c0.2,0.2,0.4,0.5,0.5,0.8C195.5,46.4,195.6,46.8,195.6,47.2z"/>
		<path id="_929183521234567891011121314" class="st1" d="M201.1,50.2c-1.1,0-1.9-0.3-2.5-0.9c-0.6-0.6-0.9-1.4-0.9-2.6
			c0-0.5,0.1-1,0.2-1.4c0.1-0.4,0.3-0.8,0.6-1.1c0.3-0.3,0.6-0.5,1-0.7c0.4-0.2,0.9-0.2,1.4-0.2c1.1,0,1.9,0.3,2.5,0.9
			c0.6,0.6,0.8,1.4,0.8,2.5c0,0.5-0.1,1-0.2,1.4c-0.1,0.4-0.3,0.8-0.6,1.1c-0.3,0.3-0.6,0.5-1,0.7C202.1,50.2,201.6,50.2,201.1,50.2
			L201.1,50.2z M199.7,46.8c0,0.9,0.1,1.5,0.3,1.9c0.2,0.4,0.6,0.6,1,0.6c0.2,0,0.4,0,0.5,0c0.2,0,0.3-0.1,0.4-0.1
			c0.1,0,0.1-0.1,0.2-0.3c0.1-0.1,0.1-0.3,0.1-0.5c0-0.2,0.1-0.4,0.1-0.7c0-0.3,0-0.5,0-0.8c0-0.8-0.1-1.5-0.3-1.9
			c-0.2-0.4-0.6-0.6-1-0.6c-0.2,0-0.4,0-0.5,0.1c-0.2,0-0.3,0.1-0.5,0.2c-0.1,0-0.1,0.1-0.2,0.3c-0.1,0.1-0.1,0.3-0.1,0.5
			c0,0.2-0.1,0.4-0.1,0.7C199.7,46.2,199.7,46.5,199.7,46.8L199.7,46.8z"/>
		<polygon id="_92918352123456789101112131415" class="st1" points="209.1,50.1 207.2,50.1 207.2,39.3 209.1,38.9 		"/>
		<path id="_9291835212345678910111213141516" class="st1" d="M214.2,43.5v4.4c0,0.4,0.1,0.7,0.2,0.9c0.1,0.2,0.3,0.3,0.6,0.3
			c0.1,0,0.2,0,0.4,0c0.1,0,0.3-0.1,0.4-0.1c0.1-0.1,0.3-0.1,0.4-0.2c0.1-0.1,0.2-0.1,0.3-0.2v-5h1.9v6.6h-1.7l-0.2-0.8h0
			c-0.1,0.1-0.3,0.2-0.5,0.3c-0.2,0.1-0.4,0.2-0.6,0.3c-0.2,0.1-0.4,0.2-0.7,0.2c-0.2,0.1-0.5,0.1-0.7,0.1c-0.2,0-0.5,0-0.7-0.1
			c-0.2-0.1-0.4-0.2-0.6-0.4c-0.2-0.2-0.3-0.4-0.4-0.6c-0.1-0.2-0.1-0.5-0.1-0.9v-4.8H214.2z"/>
		<path id="_929183521234567891011121314151617" class="st1" d="M221.7,44.4l-0.7-0.2v-0.4l2-1.4h0.5l0,1.2h2l-0.1,0.7
			c-0.1,0-0.3,0.1-0.5,0.1c-0.2,0-0.4,0-0.6,0.1c-0.2,0-0.5,0-0.7,0.1v3.7c0,0.2,0,0.4,0.1,0.6c0.1,0.2,0.3,0.2,0.5,0.2
			c0.1,0,0.2,0,0.3,0c0.1,0,0.2,0,0.4,0c0.1,0,0.3,0,0.4,0s0.2,0,0.3,0v0.5c-0.2,0.1-0.3,0.2-0.5,0.3c-0.2,0.1-0.4,0.2-0.7,0.3
			c-0.2,0.1-0.5,0.1-0.7,0.2c-0.2,0.1-0.5,0.1-0.7,0.1c-0.2,0-0.3,0-0.5,0c-0.2,0-0.3-0.1-0.4-0.2c-0.1-0.1-0.2-0.2-0.3-0.4
			c-0.1-0.2-0.1-0.4-0.1-0.7V44.4L221.7,44.4z"/>
		<path id="_92918352123456789101112131415161718" class="st1" d="M229.9,50.1H228v-6.6h1.9V50.1z M228.9,39.8l1.2,1.2l-1.2,1.2
			l-1.2-1.2L228.9,39.8z"/>
		<path id="_9291835212345678910111213141516171819" class="st1" d="M236,50.2c-1.1,0-1.9-0.3-2.5-0.9c-0.6-0.6-0.9-1.4-0.9-2.6
			c0-0.5,0.1-1,0.2-1.4c0.1-0.4,0.3-0.8,0.6-1.1c0.3-0.3,0.6-0.5,1-0.7c0.4-0.2,0.9-0.2,1.4-0.2c1.1,0,1.9,0.3,2.5,0.9
			c0.6,0.6,0.8,1.4,0.8,2.5c0,0.5-0.1,1-0.2,1.4c-0.1,0.4-0.3,0.8-0.6,1.1c-0.3,0.3-0.6,0.5-1,0.7C237,50.2,236.5,50.2,236,50.2z
			 M234.6,46.8c0,0.9,0.1,1.5,0.3,1.9c0.2,0.4,0.6,0.6,1,0.6c0.2,0,0.4,0,0.5,0c0.2,0,0.3-0.1,0.4-0.1c0.1,0,0.1-0.1,0.2-0.3
			c0.1-0.1,0.1-0.3,0.1-0.5c0-0.2,0.1-0.4,0.1-0.7c0-0.3,0-0.5,0-0.8c0-0.8-0.1-1.5-0.3-1.9c-0.2-0.4-0.6-0.6-1-0.6
			c-0.2,0-0.4,0-0.5,0.1c-0.2,0-0.3,0.1-0.5,0.2c-0.1,0-0.1,0.1-0.2,0.3c-0.1,0.1-0.1,0.3-0.1,0.5c0,0.2-0.1,0.4-0.1,0.7
			C234.6,46.2,234.6,46.5,234.6,46.8L234.6,46.8z"/>
		<path id="_929183521234567891011121314151617181920" class="st1" d="M246.3,50.1v-4.4c0-0.4-0.1-0.7-0.2-0.9
			c-0.1-0.2-0.3-0.3-0.6-0.3c-0.1,0-0.2,0-0.4,0c-0.1,0-0.3,0.1-0.4,0.1c-0.1,0.1-0.3,0.1-0.4,0.2c-0.1,0.1-0.2,0.1-0.4,0.2v5h-1.9
			v-6.6h1.7l0.2,0.8h0c0.1-0.1,0.3-0.2,0.5-0.3c0.2-0.1,0.4-0.2,0.6-0.3c0.2-0.1,0.4-0.2,0.7-0.2c0.2-0.1,0.5-0.1,0.7-0.1
			c0.2,0,0.5,0,0.7,0.1c0.2,0.1,0.4,0.2,0.6,0.4c0.2,0.2,0.3,0.4,0.4,0.6c0.1,0.2,0.1,0.5,0.1,0.9v4.8L246.3,50.1L246.3,50.1z"/>
		<path id="_92918352123456789101112131415161718192021" class="st1" d="M255.9,47.9c0,0.4-0.1,0.7-0.2,0.9
			c-0.2,0.2-0.3,0.4-0.5,0.6c-0.1,0.1-0.2,0.2-0.3,0.3c-0.1,0.1-0.3,0.2-0.4,0.2c-0.2,0.1-0.3,0.1-0.5,0.2c-0.2,0-0.4,0.1-0.7,0.1
			c-0.5,0-0.9,0-1.3-0.1c-0.4-0.1-0.7-0.2-1.1-0.5l0.5-1.2c0.1,0.1,0.3,0.2,0.5,0.3c0.2,0.1,0.3,0.2,0.5,0.3
			c0.2,0.1,0.4,0.2,0.6,0.2c0.2,0.1,0.4,0.1,0.6,0.1c0.1,0,0.3,0,0.4,0c0.1,0,0.2-0.1,0.3-0.1c0.1-0.1,0.1-0.1,0.1-0.3
			c0-0.1,0-0.3,0-0.5c0-0.2-0.1-0.4-0.2-0.5c-0.2-0.1-0.4-0.2-0.6-0.3c-0.2-0.1-0.5-0.2-0.8-0.3c-0.3-0.1-0.5-0.2-0.8-0.4
			c-0.2-0.2-0.4-0.4-0.6-0.6c-0.2-0.2-0.2-0.6-0.2-0.9c0-0.3,0.1-0.5,0.2-0.8c0.2-0.3,0.3-0.5,0.5-0.6c0.2-0.2,0.5-0.4,0.8-0.5
			c0.3-0.1,0.6-0.2,1-0.2c0.3,0,0.6,0,1,0.1c0.3,0,0.7,0.1,1,0.1l-0.2,1.3c-0.2,0-0.3-0.1-0.5-0.2c-0.2,0-0.3-0.1-0.5-0.1
			c-0.2,0-0.3-0.1-0.5-0.1c-0.2,0-0.3,0-0.4,0c-0.2,0-0.3,0-0.4,0c-0.1,0-0.2,0-0.2,0.1c0,0-0.1,0.1-0.1,0.2c0,0.1,0,0.2,0,0.3
			c0,0.2,0.1,0.4,0.2,0.5c0.2,0.1,0.4,0.2,0.6,0.3c0.2,0.1,0.5,0.2,0.8,0.3c0.3,0.1,0.5,0.2,0.8,0.4c0.2,0.2,0.4,0.3,0.6,0.6
			C255.8,47.2,255.9,47.5,255.9,47.9L255.9,47.9z"/>
	</g>
</g>
</svg>
